/* XPM */
static const char*addTreeElement_xpm[]={
"22 22 6 1",
"d c #808080",
"c c #c0c0c0",
"a c #000000",
". c None",
"# c #303030",
"b c #ffffff",
"......................",
".##...................",
".##.#####.............",
".##.#####.............",
".##.#####....a........",
".##.#####...aa........",
".##.#####..aba........",
".##.......abbaaaaaaaa.",
".##......abbcbbbbbbba.",
".##.....abbccccccccca.",
".##......abccccccccca.",
".##......dabcaaaaaaaa.",
".##.......dabaddddddd.",
".##.#####..daad.......",
".##.#####...dad.......",
".##.#####....dd.......",
".##.#####.....d.......",
".##.#####.............",
".##.#####.............",
".##...................",
".##...................",
"......................"};
