/* XPM */
static const char * downArrow_xpm[] = {
"21 19 128 2",
"  	c None",
". 	c #0236A9",
"+ 	c #0538AA",
"@ 	c #0639AA",
"# 	c #073AAB",
"$ 	c #083BAB",
"% 	c #093CAB",
"& 	c #0336A9",
"* 	c #6790DD",
"= 	c #87AEEF",
"- 	c #88AEEF",
"; 	c #89AFEF",
"> 	c #8BB2F0",
", 	c #4897FF",
"' 	c #0437A9",
") 	c #306BD6",
"! 	c #3978E6",
"~ 	c #3A7AE6",
"{ 	c #3D7CE7",
"] 	c #4080E8",
"^ 	c #90B4F2",
"/ 	c #4998FF",
"( 	c #316CD6",
"_ 	c #3C7BE7",
": 	c #3F7FE8",
"< 	c #4281E9",
"[ 	c #4785E9",
"} 	c #93B8F3",
"| 	c #4B99FF",
"1 	c #366FD7",
"2 	c #4180E8",
"3 	c #4584E9",
"4 	c #4988EA",
"5 	c #4D8CEB",
"6 	c #97BCF5",
"7 	c #4E9AFF",
"8 	c #083AAB",
"9 	c #3972D8",
"0 	c #4785EA",
"a 	c #4C89EA",
"b 	c #518EEC",
"c 	c #5694ED",
"d 	c #9CC1F5",
"e 	c #509BFF",
"f 	c #093BAB",
"g 	c #3E77DA",
"h 	c #4F8DEB",
"i 	c #5391ED",
"j 	c #5896EE",
"k 	c #5E9BF0",
"l 	c #A1C5F7",
"m 	c #539DFF",
"n 	c #0A3CAC",
"o 	c #0B3DAC",
"p 	c #0C3EAC",
"q 	c #447CDB",
"r 	c #5693EE",
"s 	c #5A98EE",
"t 	c #609DF0",
"u 	c #66A1F1",
"v 	c #A6CAF8",
"w 	c #569FFF",
"x 	c #58A0FF",
"y 	c #5AA1FF",
"z 	c #5CA2FF",
"A 	c #5DA3FF",
"B 	c #5FA4FF",
"C 	c #326DD6",
"D 	c #91B8F2",
"E 	c #94B9F4",
"F 	c #98BDF5",
"G 	c #4982DD",
"H 	c #5D9AEF",
"I 	c #63A0F1",
"J 	c #69A4F2",
"K 	c #6EA9F4",
"L 	c #73ADF5",
"M 	c #79B2F6",
"N 	c #B1D3FB",
"O 	c #B4D5FB",
"P 	c #B5D6FB",
"Q 	c #62A6FF",
"R 	c #3A75D9",
"S 	c #5493EE",
"T 	c #5998EF",
"U 	c #5F9CF0",
"V 	c #65A1F2",
"W 	c #6AA7F3",
"X 	c #71ABF5",
"Y 	c #76B0F6",
"Z 	c #7BB5F7",
"` 	c #7FB8F7",
" .	c #83BBF9",
"..	c #87BDF9",
"+.	c #65A7FF",
"@.	c #457EDC",
"#.	c #619EF2",
"$.	c #67A4F3",
"%.	c #6CA9F4",
"&.	c #72AEF5",
"*.	c #77B2F6",
"=.	c #7CB6F7",
"-.	c #81B9F8",
";.	c #85BDF9",
">.	c #88BFF9",
",.	c #68A9FF",
"'.	c #1142AE",
").	c #4F88DF",
"!.	c #6DAAF5",
"~.	c #74AFF6",
"{.	c #79B3F7",
"].	c #7EB8F7",
"^.	c #87BEF9",
"/.	c #8ABFF9",
"(.	c #69AAFF",
"_.	c #1646B0",
":.	c #5A91E1",
"<.	c #79B4F7",
"[.	c #7FB9F8",
"}.	c #83BCF9",
"|.	c #6BABFF",
"1.	c #1D4BB2",
"2.	c #6399E3",
"3.	c #86BEF9",
"4.	c #6AAAFF",
"5.	c #2551B5",
"6.	c #699EE5",
"7.	c #2E59B8",
"                                          ",
"                                          ",
"                                          ",
"                . + @ @ # # $ %           ",
"                & * = - - ; > ,           ",
"                ' ) ! ~ { ] ^ /           ",
"                + ( _ : < [ } |           ",
"                @ 1 2 3 4 5 6 7           ",
"                8 9 0 a b c d e           ",
"                f g h i j k l m           ",
"      ' # $ n o p q r s t u v w x y z A B ",
"        @ C D E F G H I J K L M N O P Q   ",
"          f R S T U V W X Y Z `  ...+.    ",
"            p @.#.$.%.&.*.=.-.;.>.,.      ",
"              '.).!.~.{.]. .^./.(.        ",
"                _.:.<.[.}.^./.|.          ",
"                  1.2.}.3./.4.            ",
"                    5.6.>.(.              ",
"                      7.,.                "};
