/* XPM */
static const char *text_color_xpm[]={
"17 17 4 1",
". c None",
"a c #000083",
"b c #838183",
"c c #ff5508",
".................",
".......a.........",
"......bab........",
"......aaa........",
".....baaab.......",
".....aa.aa.......",
"....ba..aab......",
"....aaaaaaa......",
"...ba....aab.....",
"...aa....baa.....",
"..ba.....baab....",
".aaaa...aaaaaa...",
".................",
".cccccccccccccccc",
".cccccccccccccccc",
".cccccccccccccccc",
".cccccccccccccccc"};
