/* XPM */
static const char * unlock_xpm[] = {
"30 30 190 2",
"  	c None",
". 	c #999999",
"+ 	c #B0B0B0",
"@ 	c #DEDEDE",
"# 	c #DFDFDF",
"$ 	c #B4B4B4",
"% 	c #6C6C6C",
"& 	c #FFFFFF",
"* 	c #FBFBFB",
"= 	c #F2F2F2",
"- 	c #E3E3E3",
"; 	c #BEBEBE",
"> 	c #9F9F9F",
", 	c #8F8F8F",
"' 	c #838383",
") 	c #7D7D7D",
"! 	c #888888",
"~ 	c #AAAAAA",
"{ 	c #C0C0C0",
"] 	c #303030",
"^ 	c #707070",
"/ 	c #AEAEAE",
"( 	c #626262",
"_ 	c #676767",
": 	c #929292",
"< 	c #C3C3C3",
"[ 	c #363636",
"} 	c #8C8C8C",
"| 	c #949494",
"1 	c #848484",
"2 	c #CFCFCF",
"3 	c #383838",
"4 	c #F3F3F3",
"5 	c #808080",
"6 	c #535353",
"7 	c #6F6F6F",
"8 	c #A3A3A3",
"9 	c #B9B9B9",
"0 	c #7C7C7C",
"a 	c #D3D3D3",
"b 	c #3A3A3A",
"c 	c #7E7E7E",
"d 	c #D0D0D0",
"e 	c #D8D8D8",
"f 	c #7F7F7F",
"g 	c #3E3E3E",
"h 	c #525252",
"i 	c #DADADA",
"j 	c #777777",
"k 	c #C2C2C2",
"l 	c #CDCDCD",
"m 	c #EDEDED",
"n 	c #9D9D9D",
"o 	c #4B4B4B",
"p 	c #656565",
"q 	c #767676",
"r 	c #9B9B9B",
"s 	c #9C9C9C",
"t 	c #E6E6E6",
"u 	c #606060",
"v 	c #646464",
"w 	c #5C5C5C",
"x 	c #6D6D6D",
"y 	c #727272",
"z 	c #8A8A8A",
"A 	c #BCBCBC",
"B 	c #F0F0F0",
"C 	c #ECECEC",
"D 	c #E1E1E1",
"E 	c #C4C4C4",
"F 	c #ABABAB",
"G 	c #595959",
"H 	c #636363",
"I 	c #717171",
"J 	c #9E9E9E",
"K 	c #FEFEFE",
"L 	c #F1F1F1",
"M 	c #E0E0E0",
"N 	c #CCCCCC",
"O 	c #969696",
"P 	c #4C4C4C",
"Q 	c #696969",
"R 	c #A9A9A9",
"S 	c #C5C5C5",
"T 	c #A7A7A7",
"U 	c #9A9A9A",
"V 	c #909090",
"W 	c #787878",
"X 	c #5B5B5B",
"Y 	c #4E4E4E",
"Z 	c #565656",
"` 	c #939393",
" .	c #C6C6C6",
"..	c #D2D2D2",
"+.	c #B5B5B5",
"@.	c #585858",
"#.	c #464646",
"$.	c #8B8B8B",
"%.	c #C1C1C1",
"&.	c #CACACA",
"*.	c #D9D9D9",
"=.	c #979797",
"-.	c #FD9280",
";.	c #FF9A88",
">.	c #7B7B7B",
",.	c #A4A4A4",
"'.	c #B3B3B3",
").	c #C9C9C9",
"!.	c #919191",
"~.	c #F49585",
"{.	c #C7070A",
"].	c #C50802",
"^.	c #C90F01",
"/.	c #CF1700",
"(.	c #D61E00",
"_.	c #E02500",
":.	c #FE7759",
"<.	c #757575",
"[.	c #828282",
"}.	c #CC1818",
"|.	c #C6120E",
"1.	c #C91509",
"2.	c #D01C07",
"3.	c #D92505",
"4.	c #E02804",
"5.	c #E92B04",
"6.	c #FE9988",
"7.	c #CC181A",
"8.	c #C91A1A",
"9.	c #C92018",
"0.	c #CE2716",
"a.	c #D52B13",
"b.	c #DE3110",
"c.	c #E3310F",
"d.	c #EA3612",
"e.	c #F3421E",
"f.	c #B50000",
"g.	c #898989",
"h.	c #CBCBCB",
"i.	c #C81719",
"j.	c #C8201E",
"k.	c #D2331F",
"l.	c #D9361C",
"m.	c #EC401F",
"n.	c #F24827",
"o.	c #B1B1B1",
"p.	c #FDFDFD",
"q.	c #C7181A",
"r.	c #C8221F",
"s.	c #CF2E21",
"t.	c #EC4525",
"u.	c #EF4D2E",
"v.	c #F25436",
"w.	c #4D4D4D",
"x.	c #C81B1A",
"y.	c #CB231D",
"z.	c #D42D1D",
"A.	c #DD351E",
"B.	c #EE4A2D",
"C.	c #F25437",
"D.	c #F35C41",
"E.	c #F36146",
"F.	c #393939",
"G.	c #D02419",
"H.	c #D32818",
"I.	c #DC2D16",
"J.	c #F36046",
"K.	c #F4664C",
"L.	c #F4674D",
"M.	c #686868",
"N.	c #BDBDBD",
"O.	c #E7E7E7",
"P.	c #FD9885",
"Q.	c #DF3319",
"R.	c #DF2D13",
"S.	c #EB3213",
"T.	c #EF4328",
"U.	c #F3644D",
"V.	c #F3634D",
"W.	c #B8B8B8",
"X.	c #E9310E",
"Y.	c #EA2D0C",
"Z.	c #EE3213",
"`.	c #F04327",
" +	c #F45A40",
".+	c #000000",
"++	c #EC3110",
"@+	c #EF3517",
"#+	c #F04025",
"$+	c #F14D35",
"                                                            ",
"                                                            ",
"                      . . . . . . .                         ",
"                    . + @ @ @ @ # $ %                       ",
"                  . + & & & * = - ; . %                     ",
"                  + & > , ' ) ! . ~ { % ]                   ",
"                ^ & / ' (       _ : < % [                   ",
"                } & | %           1 2 % 3                   ",
"                . 4 5 6 7 5 8 9 { 0 a % b                   ",
"                . @ c _ + ; d e & f a % g                   ",
"              h } i 7 j k l e & m n a % h o                 ",
"            p ^ q r 7 s < e & = t { $ u % v w               ",
"            x y ) z r A e & B C D 2 E F ' G H               ",
"            _ I | | J d K L i M # N { O _ P G               ",
"            y Q } R n F d S $ T U : V W X Y Z               ",
"            0 W ` >  .2 K t @ .. .+.s ^ @.#.@.              ",
"            f } $.| %.&.& M *.N =.-.;.;.;.;.;.              ",
"            >.0 O ,.'.A & ..).!.~.{.].^./.(._.:.            ",
"            <.[.V =.S 2 & M / -.}.|.1.1.2.3.4.5.:.          ",
"            7 <.` 8 +.; & ..6.7.8.9.0.0.a.b.c.d.e.f.        ",
"            <.[.g.: < h.& # ;.i.j.& & k.l.& & m.n.f.        ",
"            7 <.` 8 o.9 p.2 ;.q.r.s.& & & & t.u.v.f.        ",
"            w.) g.: < h.& # ;.x.y.z.A.& & B.C.D.E.f.        ",
"              F.: =.o.9 p.2 ;.G.H.I.& & & & J.K.L.f.        ",
"                M.$.$ N.O.e P.Q.R.& & S.T.& & U.V.f.        ",
"                    } s W.9 0 :.X.Y.Z.Z.`. +U.U.f.          ",
"                            .+.+:.++@+#+$+U.U.f.            ",
"                                .+:.f.f.f.f.f.              ",
"                                                            ",
"                                                            "};
