/* XPM */
static const char * dot_xpm[] = {
"11 7 2 1",
" 	c None",
".	c #000000",
"    ...    ",
"   .....   ",
"   .....   ",
"   .....   ",
"    ...    ",
"           ",
"           "};
