/* XPM */
static const char * format_rtf_xpm[] = {
"22 22 284 2",
"  	c None",
". 	c #938775",
"+ 	c #A1988C",
"@ 	c #9D958A",
"# 	c #999288",
"$ 	c #958F86",
"% 	c #928C84",
"& 	c #8C8880",
"* 	c #85817B",
"= 	c #77746E",
"- 	c #777572",
"; 	c #998F80",
"> 	c #DDDDDD",
", 	c #EFEFEF",
"' 	c #EEEEEE",
") 	c #E7E7E7",
"! 	c #CECECD",
"~ 	c #A1A1A0",
"{ 	c #858585",
"] 	c #2D2D2D",
"^ 	c #978D7E",
"/ 	c #E6E6E6",
"( 	c #FFFFFF",
"_ 	c #FEFEFE",
": 	c #F5F5F5",
"< 	c #CFCECE",
"[ 	c #A4A4A4",
"} 	c #9A9A9A",
"| 	c #262626",
"1 	c #958A7D",
"2 	c #A6A6A6",
"3 	c #EBEBEB",
"4 	c #959595",
"5 	c #242424",
"6 	c #92897B",
"7 	c #FCFCFC",
"8 	c #EAEAEA",
"9 	c #8D8D8D",
"0 	c #F0F0F0",
"a 	c #969696",
"b 	c #505050",
"c 	c #8D7E72",
"d 	c #E0C9C9",
"e 	c #F29898",
"f 	c #C95654",
"g 	c #A83835",
"h 	c #CA9695",
"i 	c #DE8787",
"j 	c #C7A4A4",
"k 	c #F3F3F3",
"l 	c #EDEDED",
"m 	c #626262",
"n 	c #5D5D5C",
"o 	c #70706E",
"p 	c #797877",
"q 	c #6D6D6D",
"r 	c #A83F3A",
"s 	c #DD5C5C",
"t 	c #8B544E",
"u 	c #716D67",
"v 	c #827F79",
"w 	c #CB5E5C",
"x 	c #DC4040",
"y 	c #996969",
"z 	c #E0E0E0",
"A 	c #ECEBEB",
"B 	c #D0D0CD",
"C 	c #B7B6B1",
"D 	c #96938D",
"E 	c #716E6A",
"F 	c #585654",
"G 	c #AF2121",
"H 	c #D25554",
"I 	c #7C342E",
"J 	c #93908E",
"K 	c #D7D7D7",
"L 	c #F17272",
"M 	c #A93534",
"N 	c #6A6463",
"O 	c #F5F4F3",
"P 	c #E7E6E4",
"Q 	c #D4D2CE",
"R 	c #BEBAB1",
"S 	c #979189",
"T 	c #3B3834",
"U 	c #A61616",
"V 	c #DE5959",
"W 	c #7F312C",
"X 	c #7F7E7C",
"Y 	c #D8D8D8",
"Z 	c #F9F9F9",
"` 	c #F5D4D4",
" .	c #F48383",
"..	c #9C2C2A",
"+.	c #91908F",
"@.	c #FBFAF8",
"#.	c #F8F4EF",
"$.	c #EDE9E3",
"%.	c #E1DCD4",
"&.	c #CBC7BE",
"*.	c #ACA69B",
"=.	c #3A3733",
"-.	c #C13333",
";.	c #AA3B39",
">.	c #4F3D38",
",.	c #C0C0C0",
"'.	c #FAFAFA",
").	c #F2A5A5",
"!.	c #FD7171",
"~.	c #782D2D",
"{.	c #B1B1B0",
"].	c #F5F3F1",
"^.	c #FAF6F1",
"/.	c #F8F2EA",
"(.	c #F0EAE0",
"_.	c #E8E2D8",
":.	c #DAD3C7",
"<.	c #B8AF9E",
"[.	c #3B3833",
"}.	c #DE6969",
"|.	c #AA2E2B",
"1.	c #5A564F",
"2.	c #F45F5F",
"3.	c #E74D4D",
"4.	c #45413C",
"5.	c #BAB9B7",
"6.	c #F5F2ED",
"7.	c #F7F2EA",
"8.	c #F5EFE5",
"9.	c #F1EADD",
"0.	c #EBE3D6",
"a.	c #E2D8C9",
"b.	c #C1B6A3",
"c.	c #3C3933",
"d.	c #C84141",
"e.	c #CE3C3C",
"f.	c #5C110D",
"g.	c #6C6760",
"h.	c #E2E2E2",
"i.	c #E97D7D",
"j.	c #FB6D6D",
"k.	c #A21B1B",
"l.	c #8A8988",
"m.	c #D9D5D0",
"n.	c #F5F0E7",
"o.	c #F5EEE3",
"p.	c #F3EBDD",
"q.	c #F1E7D7",
"r.	c #ECE1CF",
"s.	c #E4D8C5",
"t.	c #C5B7A0",
"u.	c #DA4F4F",
"v.	c #EE6D6D",
"w.	c #726E66",
"x.	c #E4E4E4",
"y.	c #F1CDCD",
"z.	c #EC7171",
"A.	c #DA3737",
"B.	c #611E19",
"C.	c #9F9B96",
"D.	c #D6A19D",
"E.	c #E4DDD3",
"F.	c #F0E7DA",
"G.	c #F2E7D6",
"H.	c #F0E4D0",
"I.	c #ECDEC8",
"J.	c #E7D9C2",
"K.	c #CAB89F",
"L.	c #E55050",
"M.	c #F55A5A",
"N.	c #757069",
"O.	c #D9B0B0",
"P.	c #CF5B5B",
"Q.	c #B13333",
"R.	c #C10F0F",
"S.	c #844A47",
"T.	c #C88684",
"U.	c #B97672",
"V.	c #BFB7AC",
"W.	c #E6DBCA",
"X.	c #F0E3CF",
"Y.	c #EEE0C8",
"Z.	c #ECDBC3",
"`.	c #E6D6BA",
" +	c #CCB99C",
".+	c #C23232",
"++	c #EB5252",
"@+	c #AB2221",
"#+	c #C75756",
"$+	c #735858",
"%+	c #995B59",
"&+	c #DA2828",
"*+	c #C04C4B",
"=+	c #B4736F",
"-+	c #8F8176",
";+	c #CDC3B5",
">+	c #E9DDC9",
",+	c #EEDFC8",
"'+	c #ECDCC2",
")+	c #EAD8BD",
"!+	c #E7D4B5",
"~+	c #CEB998",
"{+	c #3D3932",
"]+	c #551E16",
"^+	c #83231D",
"/+	c #933B35",
"(+	c #832F2B",
"_+	c #64615E",
":+	c #CFCCC9",
"<+	c #A8A39B",
"[+	c #983832",
"}+	c #99524C",
"|+	c #827B6F",
"1+	c #CBC1B2",
"2+	c #E8DAC6",
"3+	c #EDDEC7",
"4+	c #ECDBC1",
"5+	c #EAD8BC",
"6+	c #E8D4B5",
"7+	c #E7D1B0",
"8+	c #CEB694",
"9+	c #5F5C57",
"0+	c #D5D3D2",
"a+	c #F4EFE8",
"b+	c #EAE4DC",
"c+	c #B7B0A5",
"d+	c #AFA79A",
"e+	c #D0C6B6",
"f+	c #E5D8C4",
"g+	c #EDDEC6",
"h+	c #ECDBC0",
"i+	c #EAD8BB",
"j+	c #E6D0AE",
"k+	c #E5CCA8",
"l+	c #CDB38D",
"m+	c #6E6B65",
"n+	c #E2DFDC",
"o+	c #F6F0E6",
"p+	c #F3ECE0",
"q+	c #F0E6D7",
"r+	c #EEE2D0",
"s+	c #EDE0CA",
"t+	c #EDDDC6",
"u+	c #ECDAC0",
"v+	c #EAD7BA",
"w+	c #E8D3B4",
"x+	c #E5CCA7",
"y+	c #E3C8A2",
"z+	c #CDB087",
"A+	c #3D3831",
"B+	c #6D6A64",
"C+	c #E1DED9",
"D+	c #F4ECE1",
"E+	c #F1E9DA",
"F+	c #F1E5D2",
"G+	c #EFE2CE",
"H+	c #EEDDC6",
"I+	c #E9D6B9",
"J+	c #E6CFAD",
"K+	c #E4CCA7",
"L+	c #E3C7A0",
"M+	c #CCAF83",
"N+	c #6A6761",
"O+	c #D1CDC4",
"P+	c #D8D0C5",
"Q+	c #D6CDBE",
"R+	c #D7C9B5",
"S+	c #D4C8B3",
"T+	c #D5C4AB",
"U+	c #D3C1A5",
"V+	c #D2BD9E",
"W+	c #D0BA98",
"X+	c #CFB693",
"Y+	c #CDB38E",
"Z+	c #CDB088",
"`+	c #B7996D",
" @	c #3B372F",
".@	c #4B4843",
"+@	c #3E3B37",
"@@	c #3D3B36",
"#@	c #3D3A35",
"$@	c #3D3A34",
"%@	c #3D3933",
"&@	c #32302B",
"          . + @ # $ % & * = -               ",
"          ; > , , , , ' ) ! ~ { ]           ",
"          ^ / ( ( ( ( ( _ : < [ } |         ",
"          1 / ( ( ( ( ( ( ( ) 2 3 4 5       ",
"          6 / _ 7 7 7 7 7 _ 8 9 ' 0 a b     ",
"          c d e f g h i j k l m n o p q     ",
"          r s t u v w x y z 7 A B C D E F   ",
"        G H I J K 0 L M N > 7 O P Q R S T   ",
"      U V W X Y Z `  ...+.3 @.#.$.%.&.*.=.  ",
"      -.;.>.,.'.( ).!.~.{.].^./.(._.:.<.[.  ",
"      }.|.1.Y ( 7 2.3.4.5.6.7.8.9.0.a.b.c.  ",
"    d.e.f.g.h.7 i.j.k.l.m.n.o.p.q.r.s.t.c.  ",
"    u.v.  w.x.y.z.A.B.C.D.E.F.G.H.I.J.K.c.  ",
"    L.M.  N.O.P.Q.R.S.T.U.V.W.X.Y.Z.`. +c.  ",
"    .+++  @+#+$+%+&+*+=+-+;+>+,+'+)+!+~+{+  ",
"    ]+^+/+(+_+:+<+[+}+|+1+2+3+4+5+6+7+8+{+  ",
"          9+0+a+b+c+d+e+f+g+h+i+6+j+k+l+{+  ",
"          m+n+o+p+q+r+s+t+u+v+w+j+x+y+z+A+  ",
"          B+C+D+E+F+G+H+u+I+w+J+K+y+L+M+A+  ",
"          N+O+P+Q+R+S+T+U+V+W+X+Y+Z+M+`+ @  ",
"          .@+@@@@@#@#@$@$@%@%@{+{+A+A+ @&@  ",
"                                            "};
