/* XPM */
static char * format_ascii_xpm[] = {
"22 22 297 2",
"  	c None",
". 	c #868686",
"+ 	c #969696",
"@ 	c #8F8F8F",
"# 	c #8A8A8A",
"$ 	c #888888",
"% 	c #7D7D7D",
"& 	c #737373",
"* 	c #666666",
"= 	c #505050",
"- 	c #131313",
"; 	c #FEE1A4",
"> 	c #EAA25B",
", 	c #DDDDDD",
"' 	c #EFEFEF",
") 	c #EEEEEE",
"! 	c #EAEAEA",
"~ 	c #D9D9D9",
"{ 	c #BABABA",
"] 	c #555555",
"^ 	c #222222",
"/ 	c #FDAE41",
"( 	c #F9C984",
"_ 	c #D28F4F",
": 	c #8B5C32",
"< 	c #828282",
"[ 	c #E6E6E6",
"} 	c #FFFFFF",
"| 	c #FDFDFD",
"1 	c #DBDBDB",
"2 	c #929292",
"3 	c #9B9B9B",
"4 	c #252525",
"5 	c #FE8904",
"6 	c #FDA740",
"7 	c #F9C181",
"8 	c #D59252",
"9 	c #7F7E7D",
"0 	c #E5E5E5",
"a 	c #E9E9E9",
"b 	c #A2A2A2",
"c 	c #EBEBEB",
"d 	c #242424",
"e 	c #FF8901",
"f 	c #FD8202",
"g 	c #FDA440",
"h 	c #FCC082",
"i 	c #D3904E",
"j 	c #8D765D",
"k 	c #E3E3E3",
"l 	c #ECECEC",
"m 	c #F0F0F0",
"n 	c #F68103",
"o 	c #FD8703",
"p 	c #FD8404",
"q 	c #FDA143",
"r 	c #FBBE7F",
"s 	c #D69555",
"t 	c #C8AE96",
"u 	c #FAF9F8",
"v 	c #7F7F7F",
"w 	c #7D7D7C",
"x 	c #797977",
"y 	c #626160",
"z 	c #3F3F3E",
"A 	c #050504",
"B 	c #C15E04",
"C 	c #ED7C04",
"D 	c #FE8903",
"E 	c #FD8303",
"F 	c #FD9B3A",
"G 	c #FBBB78",
"H 	c #E09853",
"I 	c #D5B59B",
"J 	c #FCFCFC",
"K 	c #F5F5F4",
"L 	c #DCDBD9",
"M 	c #C1C0BB",
"N 	c #A09C95",
"O 	c #7B7874",
"P 	c #080808",
"Q 	c #7C3903",
"R 	c #B55804",
"S 	c #EC7B04",
"T 	c #FD8403",
"U 	c #FD982D",
"V 	c #FCB06E",
"W 	c #E09D61",
"X 	c #E2C4A6",
"Y 	c #FCFAFA",
"Z 	c #FEFEFE",
"` 	c #F1F0EE",
" .	c #E2DFDC",
"..	c #CEC9BF",
"+.	c #A6A097",
"@.	c #0B0B0A",
"#.	c #271201",
"$.	c #803C03",
"%.	c #BA5804",
"&.	c #ED7D03",
"*.	c #F68E38",
"=.	c #F2BE9B",
"-.	c #F5CDA1",
";.	c #F8D9C9",
">.	c #FCFBF9",
",.	c #F8F4EF",
"'.	c #F4F0EA",
").	c #EDE7E0",
"!.	c #DFD9D0",
"~.	c #C0B9AC",
"{.	c #0D0C0B",
"].	c #1E0E01",
"^.	c #813A03",
"/.	c #B45604",
"(.	c #EA7D03",
"_.	c #FC8407",
":.	c #EB7C1E",
"<.	c #F4B392",
"[.	c #FFE9D7",
"}.	c #F8DAC2",
"|.	c #EDE6E2",
"1.	c #FEFEFD",
"2.	c #FBF9F7",
"3.	c #FAF6F1",
"4.	c #F8F2EA",
"5.	c #F1EBE2",
"6.	c #EEE7DD",
"7.	c #E7DFD3",
"8.	c #C8BEAC",
"9.	c #2C1301",
"0.	c #863E03",
"a.	c #BC5902",
"b.	c #E9701A",
"c.	c #EB6F29",
"d.	c #EB9168",
"e.	c #FBCDAE",
"f.	c #FEE9CF",
"g.	c #E7D4C6",
"h.	c #F9F9F8",
"i.	c #F9F6F0",
"j.	c #F7F2EA",
"k.	c #F5EFE5",
"l.	c #F2EADD",
"m.	c #EEE5D8",
"n.	c #EAE0D0",
"o.	c #CCC0AB",
"p.	c #0E0D0B",
"q.	c #190D05",
"r.	c #783913",
"s.	c #93511C",
"t.	c #AC5A27",
"u.	c #BF7853",
"v.	c #E6A17F",
"w.	c #FED9BE",
"x.	c #FDD2B4",
"y.	c #E5E3E0",
"z.	c #F7F3EE",
"A.	c #F7F2E9",
"B.	c #F5EEE3",
"C.	c #F3EBDD",
"D.	c #F1E7D7",
"E.	c #ECE1CF",
"F.	c #EADECA",
"G.	c #CDBEA7",
"H.	c #0E0C0B",
"I.	c #291109",
"J.	c #483A2F",
"K.	c #67482B",
"L.	c #8F5A35",
"M.	c #C17958",
"N.	c #EEB195",
"O.	c #FEE0C4",
"P.	c #EBCAB5",
"Q.	c #EFEAE1",
"R.	c #F2E7D6",
"S.	c #F0E4D0",
"T.	c #ECDEC8",
"U.	c #E9DBC4",
"V.	c #CFBEA4",
"W.	c #32302F",
"X.	c #423F39",
"Y.	c #4E3E2D",
"Z.	c #865233",
"`.	c #BE7754",
" +	c #ECAE92",
".+	c #F4D0B3",
"++	c #E5D6C9",
"@+	c #F2E9DB",
"#+	c #F0E3CF",
"$+	c #EEE0C8",
"%+	c #ECDBC3",
"&+	c #E6D6BA",
"*+	c #CFBB9E",
"=+	c #0E0C0A",
"-+	c #5B5B5B",
";+	c #8E8E8E",
">+	c #686665",
",+	c #473C34",
"'+	c #704C37",
")+	c #B17758",
"!+	c #CB9878",
"~+	c #C3B09D",
"{+	c #EBE0CF",
"]+	c #EFE2CE",
"^+	c #EEDFC8",
"/+	c #ECDCC2",
"(+	c #EAD8BD",
"_+	c #E7D4B5",
":+	c #CEB998",
"<+	c #6D6D6D",
"[+	c #D1D0D0",
"}+	c #C2C0BD",
"|+	c #A09D9B",
"1+	c #5A5855",
"2+	c #4C3E36",
"3+	c #423024",
"4+	c #5B513E",
"5+	c #D5C6AE",
"6+	c #EBDCC5",
"7+	c #ECDBC1",
"8+	c #EAD8BC",
"9+	c #E8D4B5",
"0+	c #E7D1B0",
"a+	c #CEB694",
"b+	c #1F1A15",
"c+	c #717171",
"d+	c #E1E0DE",
"e+	c #E9E5DE",
"f+	c #D2CDC6",
"g+	c #B3AEA5",
"h+	c #8E8981",
"i+	c #5D5A57",
"j+	c #262521",
"k+	c #80776A",
"l+	c #DDCDB4",
"m+	c #E9D7BA",
"n+	c #E6D0AE",
"o+	c #E5CCA8",
"p+	c #CDB38D",
"q+	c #332D21",
"r+	c #6F6F6F",
"s+	c #E2E0DC",
"t+	c #F5EFE6",
"u+	c #F0E9DD",
"v+	c #E3DACB",
"w+	c #CEC3B4",
"x+	c #AFA696",
"y+	c #989185",
"z+	c #8C826E",
"A+	c #CCBBA2",
"B+	c #E6D1B2",
"C+	c #E5CCA7",
"D+	c #E3C8A2",
"E+	c #CDB087",
"F+	c #332A1E",
"G+	c #6B6B6B",
"H+	c #E1DED9",
"I+	c #F4ECE1",
"J+	c #F1E9DA",
"K+	c #F0E4D2",
"L+	c #EBDECB",
"M+	c #DECFB9",
"N+	c #CABCA5",
"O+	c #B9AA93",
"P+	c #D1BFA3",
"Q+	c #E5CEAC",
"R+	c #E4CCA7",
"S+	c #E3C7A0",
"T+	c #CCAF83",
"U+	c #605F5E",
"V+	c #D1CDC4",
"W+	c #D8D0C5",
"X+	c #D6CDBE",
"Y+	c #D7C9B5",
"Z+	c #D4C8B3",
"`+	c #D4C3AB",
" @	c #CFBDA2",
".@	c #C9B497",
"+@	c #CBB695",
"@@	c #CFB593",
"#@	c #CDB38E",
"$@	c #CDB088",
"%@	c #C2A375",
"&@	c #201F1A",
"*@	c #38332D",
"=@	c #37312B",
"-@	c #35312C",
";@	c #363029",
">@	c #34302B",
",@	c #332F26",
"'@	c #332E28",
")@	c #342C24",
"!@	c #342C23",
"~@	c #352C20",
"{@	c #312B23",
"]@	c #332B1E",
"^@	c #0D0B07",
"          . + @ # $ . % & * = -             ",
"; >       # , ' ' ' ' ) ! ~ { ] ^           ",
"/ ( _ :   < [ } } } } } } | 1 2 3 4         ",
"5 6 7 8   9 0 } } } } } } } a b c + d       ",
"e f g h i j k } } } } } } } l + ) m + 4     ",
"n o p q r s t u } } } } } } m v w x y z A   ",
"B C D E F G H I J } } } } } } K L M N O P   ",
"Q R S o T U V W X Y } } } } Z u `  ...+.@.  ",
"#.$.%.&.5 T *.=.-.;.J } } Z >.,.'.).!.~.{.  ",
"  ].^./.(._.:.<.[.}.|.Z 1.2.3.4.5.6.7.8.{.  ",
"    9.0.a.b.c.d.e.f.g.h.2.i.j.k.l.m.n.o.p.  ",
"      q.r.s.t.u.v.w.x.y.z.A.B.C.D.E.F.G.H.  ",
"        I.J.K.L.M.N.O.P.Q.B.C.R.S.T.U.V.H.  ",
"          W.X.Y.Z.`. +.+++@+R.#+$+%+&+*+=+  ",
"          -+;+>+,+'+)+!+~+{+]+^+/+(+_+:+=+  ",
"          <+[+}+|+1+2+3+4+5+6+7+8+9+0+a+b+  ",
"          c+d+e+f+g+h+i+j+k+l+m+9+n+o+p+q+  ",
"          r+s+t+u+v+w+x+y+z+A+B+n+C+D+E+F+  ",
"          G+H+I+J+K+L+M+N+O+P+Q+R+D+S+T+F+  ",
"          U+V+W+X+Y+Z+`+ @.@+@@@#@$@T+%@F+  ",
"          &@*@=@-@;@>@,@'@)@!@~@{@q+]@]@^@  ",
"                                            "};
