/* XPM */
static const char * editcopy_xpm[] = {
"22 22 208 2",
"  	c None",
". 	c #111111",
"+ 	c #121212",
"@ 	c #2A2A2A",
"# 	c #262626",
"$ 	c #3A3A3A",
"% 	c #777777",
"& 	c #B5B5B5",
"* 	c #808080",
"= 	c #707070",
"- 	c #929292",
"; 	c #5E5E5E",
"> 	c #101010",
", 	c #3F3F3F",
"' 	c #A4A4A4",
") 	c #E2E2E2",
"! 	c #FFFFFF",
"~ 	c #BFBEBF",
"{ 	c #747374",
"] 	c #E6E6E6",
"^ 	c #CFCFCF",
"/ 	c #6D6D6D",
"( 	c #535353",
"_ 	c #F8F8F8",
": 	c #D5D5D5",
"< 	c #DFDFDF",
"[ 	c #F2F2F2",
"} 	c #4B4A4A",
"| 	c #969595",
"1 	c #7F7E7F",
"2 	c #161616",
"3 	c #FAFAFA",
"4 	c #9F9F9F",
"5 	c #C7C7C7",
"6 	c #B1B1B1",
"7 	c #E3E3E3",
"8 	c #FDFDFD",
"9 	c #7D7D7C",
"0 	c #7A7979",
"a 	c #848384",
"b 	c #7A7A7A",
"c 	c #393938",
"d 	c #090909",
"e 	c #000000",
"f 	c #BDBDBD",
"g 	c #ECECEC",
"h 	c #CACACA",
"i 	c #BABABA",
"j 	c #E6E5E4",
"k 	c #EBE8E6",
"l 	c #DBD8D5",
"m 	c #D1CBC7",
"n 	c #807B77",
"o 	c #0E0E0E",
"p 	c #0B0B0B",
"q 	c #D7D7D7",
"r 	c #737373",
"s 	c #A3A3A3",
"t 	c #DADADA",
"u 	c #E7E7E6",
"v 	c #F8F5F2",
"w 	c #D9D3CE",
"x 	c #C3BBB5",
"y 	c #9D958F",
"z 	c #C0B8B1",
"A 	c #1D1D1D",
"B 	c #A8A8A8",
"C 	c #2C2C2C",
"D 	c #868686",
"E 	c #424242",
"F 	c #F9F9F9",
"G 	c #E5E5E5",
"H 	c #E1E1E1",
"I 	c #A1A1A1",
"J 	c #5A5552",
"K 	c #9D9690",
"L 	c #CCC0B7",
"M 	c #DBCEC3",
"N 	c #DACDC2",
"O 	c #33312F",
"P 	c #838383",
"Q 	c #353435",
"R 	c #F7F7F7",
"S 	c #C8C8C8",
"T 	c #EAEAEA",
"U 	c #959494",
"V 	c #D7D6D4",
"W 	c #DCD8D5",
"X 	c #F4EDE7",
"Y 	c #E5DBD1",
"Z 	c #C0B3A8",
"` 	c #9A8D82",
" .	c #B0A194",
"..	c #655D56",
"+.	c #414141",
"@.	c #B4B4B4",
"#.	c #3C3B3B",
"$.	c #BFBFBF",
"%.	c #898989",
"&.	c #FEFEFE",
"*.	c #ADADAD",
"=.	c #F5F5F5",
"-.	c #EFEDEC",
";.	c #D6D2D0",
">.	c #9B9793",
",.	c #938B86",
"'.	c #BCAEA2",
").	c #BBAB9D",
"!.	c #D0BEAF",
"~.	c #E4CFBD",
"{.	c #958679",
"].	c #363636",
"^.	c #ACACAC",
"/.	c #3A3939",
"(.	c #424141",
"_.	c #3B3A3B",
":.	c #313131",
"<.	c #6F6F6F",
"[.	c #CCCBCB",
"}.	c #8C8988",
"|.	c #CCC6C2",
"1.	c #C9C1BB",
"2.	c #E9DDD4",
"3.	c #E1D3C7",
"4.	c #B7A89D",
"5.	c #B4A292",
"6.	c #877869",
"7.	c #C4AC97",
"8.	c #818181",
"9.	c #A0A0A0",
"0.	c #323232",
"a.	c #FCFBFB",
"b.	c #F0EBE7",
"c.	c #C3BDB7",
"d.	c #D6CCC3",
"e.	c #A79688",
"f.	c #8B7E72",
"g.	c #948579",
"h.	c #CDB8A5",
"i.	c #E3CAB4",
"j.	c #D1B49C",
"k.	c #3E3731",
"l.	c #9E9E9E",
"m.	c #C5C5C5",
"n.	c #9D9895",
"o.	c #908983",
"p.	c #D3C6BC",
"q.	c #E6D6C7",
"r.	c #EFDCCB",
"s.	c #E5CEBB",
"t.	c #DBC1AB",
"u.	c #D0B299",
"v.	c #B2957D",
"w.	c #433931",
"x.	c #373636",
"y.	c #5D5D5D",
"z.	c #8E8E8E",
"A.	c #7C7C7C",
"B.	c #DDDDDD",
"C.	c #9C9C9C",
"D.	c #FAF4EF",
"E.	c #EEE2D6",
"F.	c #E4D5C7",
"G.	c #D9C7B8",
"H.	c #C6B2A1",
"I.	c #938274",
"J.	c #62574D",
"K.	c #312C28",
"L.	c #181818",
"M.	c #9A9A9A",
"N.	c #B7B7B7",
"O.	c #DCDCDC",
"P.	c #565452",
"Q.	c #D8CFC7",
"R.	c #A59C94",
"S.	c #706962",
"T.	c #3C3834",
"U.	c #0C0C0C",
"V.	c #060606",
"W.	c #4B4B4B",
"X.	c #4E4E4E",
"Y.	c #7D7D7D",
"Z.	c #727272",
"`.	c #1C1B1B",
" +	c #040404",
".+	c #949494",
"++	c #999999",
"@+	c #A5A5A5",
"#+	c #B9B9B9",
"$+	c #D1D1D1",
"%+	c #E9E9E9",
"&+	c #AAAAAA",
"*+	c #515151",
"=+	c #606060",
"-+	c #828282",
";+	c #545353",
">+	c #9D9D9D",
",+	c #DEDEDE",
"'+	c #0D0D0D",
")+	c #CBCBCB",
"!+	c #D4D4D4",
"~+	c #EDEDED",
"{+	c #F4F4F4",
"]+	c #FCFCFC",
"^+	c #CDCDCD",
"/+	c #D2D2D2",
"(+	c #D6D6D6",
"_+	c #D8D8D8",
"                                            ",
"            . + @ #                         ",
"    . + $ % & * = - ; >                     ",
"+ , ' ) ! ! ! ~ { ] ^ / .                   ",
"  ( ! ! _ : < [ } | 1 $ 2                   ",
"  2 3 4 5 6 7 8 9 0 a b c d e               ",
"  . f g 3 7 h i j k l m n o p o > .         ",
"  . * q r s t u v w x y z A B 5 C D +       ",
"    E F 3 G H I J K L M N O P f Q R S +     ",
"    . T 0 U V W X Y Z `  ...+.@.#.$.8 %.+ &.",
"    . *.=.-.;.>.,.'.).!.~.{.].^./.(._.:.+ &.",
"      <.[.}.|.1.2.3.4.5.6.7.+ 8.S @.9.8.+ &.",
"      0.a.b.c.d.e.f.g.h.i.j.k.l.$.H R m.+ &.",
"      . t n.o.p.q.r.s.t.u.v.w.x.y.z.A.B.+ &.",
"      . C.D.E.F.G.H.I.J.K.L.:.M.N.O.=.B.+ &.",
"        P.Q.R.S.T.U.p p V.W.X.Y.b Z.Y.B.+ &.",
"        2 `.p d  +V..+++l.@+^.#+$+%+F B.+ &.",
"                e d &+*+=+z.-+<.;+>+* ,++ &.",
"                e '+)+!+B.] ~+{+F ]+! ,++ &.",
"                  > ^+/+(+_+t O.B.,+,+,++ &.",
"                  . . . . + + + + + + + + &.",
"                  &.&.&.&.&.&.&.&.&.&.&.&.! "};
