/* XPM */
static const char * editpaste_xpm[] = {
"24 24 192 2",
"  	c None",
". 	c #161616",
"+ 	c #3E3811",
"@ 	c #776D14",
"# 	c #675800",
"$ 	c #5B5200",
"% 	c #020202",
"& 	c #060A06",
"* 	c #262206",
"= 	c #897B1E",
"- 	c #FDFDFC",
"; 	c #D2CD79",
"> 	c #ADA35A",
", 	c #362E16",
"' 	c #EAEAEA",
") 	c #FFFFFF",
"! 	c #EEEEEE",
"~ 	c #5F5000",
"{ 	c #F8F8DB",
"] 	c #F1F1C6",
"^ 	c #D4CE8F",
"/ 	c #A79C40",
"( 	c #4D472A",
"_ 	c #C5C5C5",
": 	c #C9C9C9",
"< 	c #CCCCCC",
"[ 	c #DBDBDB",
"} 	c #3A3636",
"| 	c #A6A6A6",
"1 	c #DCD697",
"2 	c #D1CD7E",
"3 	c #BEB961",
"4 	c #B3AD50",
"5 	c #897912",
"6 	c #818181",
"7 	c #888885",
"8 	c #8C8C8C",
"9 	c #262626",
"0 	c #A2A2A2",
"a 	c #A9A9A9",
"b 	c #B2B6B6",
"c 	c #3E3A32",
"d 	c #2E2E26",
"e 	c #26261A",
"f 	c #22221A",
"g 	c #212119",
"h 	c #212115",
"i 	c #151511",
"j 	c #616165",
"k 	c #717171",
"l 	c #797979",
"m 	c #212121",
"n 	c #999999",
"o 	c #9E9E9E",
"p 	c #AAAAAA",
"q 	c #BEBEBE",
"r 	c #9A9A9A",
"s 	c #6A6A6A",
"t 	c #5B5B5B",
"u 	c #616161",
"v 	c #575757",
"w 	c #595959",
"x 	c #939393",
"y 	c #2C2C2C",
"z 	c #B5B5B1",
"A 	c #AFAFAF",
"B 	c #9A9E9E",
"C 	c #969696",
"D 	c #7C7C7C",
"E 	c #462C15",
"F 	c #392414",
"G 	c #2E1E11",
"H 	c #20160F",
"I 	c #15100C",
"J 	c #1B1B1B",
"K 	c #1E1E1E",
"L 	c #E6E6E6",
"M 	c #9F9F9F",
"N 	c #A4A4A4",
"O 	c #A2A29E",
"P 	c #959595",
"Q 	c #7A7A7A",
"R 	c #313131",
"S 	c #121212",
"T 	c #E3E3E3",
"U 	c #B6B6B6",
"V 	c #9F9FA3",
"W 	c #979797",
"X 	c #8A8A8A",
"Y 	c #787878",
"Z 	c #626262",
"` 	c #3B3A3B",
" .	c #DFDFDF",
"..	c #AEAEAE",
"+.	c #828282",
"@.	c #C6C6C6",
"#.	c #464545",
"$.	c #898989",
"%.	c #8E8E8E",
"&.	c #696969",
"*.	c #D8D8D8",
"=.	c #A2A2A6",
"-.	c #858585",
";.	c #6C6C6C",
">.	c #5B5A5A",
",.	c #FDFBFA",
"'.	c #747474",
").	c #D4D4D4",
"!.	c #868682",
"~.	c #868686",
"{.	c #FDFAF8",
"].	c #FCF6F1",
"^.	c #FAF3ED",
"/.	c #F0E9E5",
"(.	c #C2B9B1",
"_.	c #D0D0D0",
":.	c #7E7E7E",
"<.	c #7D7D7D",
"[.	c #656565",
"}.	c #3D2714",
"|.	c #5A5451",
"1.	c #7E7771",
"2.	c #A0948B",
"3.	c #7D736C",
"4.	c #D9CFC6",
"5.	c #CDCDCD",
"6.	c #757575",
"7.	c #5E5E5E",
"8.	c #342213",
"9.	c #FCF7F3",
"0.	c #FBF4EE",
"a.	c #F9F0E8",
"b.	c #F9EDE2",
"c.	c #F8E9DD",
"d.	c #F7E6D6",
"e.	c #D7C9BC",
"f.	c #2C1D11",
"g.	c #5A5959",
"h.	c #C3BFBC",
"i.	c #7F7B78",
"j.	c #5A5551",
"k.	c #C1B4AA",
"l.	c #9B8574",
"m.	c #7D6E62",
"n.	c #7B6C60",
"o.	c #D5C1B0",
"p.	c #707070",
"q.	c #555555",
"r.	c #23170E",
"s.	c #FBF5F0",
"t.	c #FAF1EA",
"u.	c #FAEEE5",
"v.	c #F8EADF",
"w.	c #F8E7D9",
"x.	c #F6E3D3",
"y.	c #F5DECC",
"z.	c #F5DBC6",
"A.	c #D4BAA5",
"B.	c #808080",
"C.	c #5D5D5D",
"D.	c #4B4B4B",
"E.	c #19130E",
"F.	c #7E7975",
"G.	c #595450",
"H.	c #7C6E61",
"I.	c #564B43",
"J.	c #7A6959",
"K.	c #D2B59B",
"L.	c #6E6E6E",
"M.	c #6A6666",
"N.	c #454545",
"O.	c #120E0B",
"P.	c #F9ECE0",
"Q.	c #F7E8DA",
"R.	c #F7E4D4",
"S.	c #F5E0CE",
"T.	c #F5DCC8",
"U.	c #F4D9C3",
"V.	c #F2D5BD",
"W.	c #F2D1B7",
"X.	c #D0AD91",
"Y.	c #010101",
"Z.	c #111111",
"`.	c #D8CBBF",
" +	c #D7C6B6",
".+	c #D3BCA8",
"++	c #D2B8A1",
"@+	c #D2B199",
"#+	c #D0AF91",
"$+	c #CFA98A",
"%+	c #CEA685",
"&+	c #000000",
"            . + @ # $                           ",
"  % % % % & * = - ; > , % % % % %               ",
"% ' ) ) ! ! ~ ) { ] ^ / ( _ : < [ }             ",
"% ) | | | ~ ) 1 2 3 4 / 5 ( 6 7 8 9             ",
"% ) 0 a b c d e e f e g h i j k l m             ",
"% ! n o p q p r 6 s t u v u w v x y             ",
"% ' z A p B o C D E E E F G H I J K             ",
"% L x M N O r P Q E ) ) ) ) ) ) R K S           ",
"% T U p V W X Y Z E ) ) ) ) ) ) ` ) : S         ",
"%  .C o o p ..x D E ) +.: +.@.) #.: ) $.S       ",
"% [ r | o %.+.6 &.E ) ) ) ) ) ) #.#.` R S       ",
"% *.%.C r | =.-.;.E ) +.>.: +.: ,.@.N '.S       ",
"% ).| p | !.~.-.;.E ) ) ) ) ) {.].^./.(.S       ",
"% _.:.~.X r C <.[.}.) >.+.@.+.|.1.2.3.4.S       ",
"% 5.r C ~.:.Q 6.7.8.) ) ,.9.0.a.b.c.d.e.S       ",
"% : ~.%.%.~.+.l Z f.) g.h.i.j.k.l.m.n.o.S       ",
"% @.:.+.:.Q p.&.q.r.) s.t.u.v.w.x.y.z.A.S       ",
"% @.+.~.~.B.B.C.D.E.) F.G.k.l.H.I.l.J.K.S       ",
"% p L.L.L.L.M.q.N.O.) P.Q.R.S.T.U.V.W.X.S       ",
"  % % % % % % Y.Z.J 4.`. +o..+++@+#+$+%+S       ",
"                  S S S S S S S S S S &+&+      ",
"                                                ",
"                                                ",
"                                                "};
