/* XPM */
static const char * editcut_xpm[] = {
"24 24 57 1",
" 	c None",
".	c #432C00",
"+	c #6B5937",
"@	c #4D370E",
"#	c #442D02",
"$	c #FFECA1",
"%	c #EAD699",
"&	c #B7934B",
"*	c #4B350C",
"=	c #493309",
"-	c #FFEBA0",
";	c #9D6C0A",
">	c #020202",
",	c #CC9900",
"'	c #432C01",
")	c #E8D391",
"!	c #000000",
"~	c #DCB950",
"{	c #5E4C29",
"]	c #010101",
"^	c #CD9B05",
"/	c #714A00",
"(	c #3C2800",
"_	c #DFD0B2",
":	c #FFEEAE",
"<	c #9A6600",
"[	c #FFF4CB",
"}	c #9B7F4C",
"|	c #4E3913",
"1	c #D5AB2D",
"2	c #513C14",
"3	c #E8D290",
"4	c #A58D5F",
"5	c #9E6C0B",
"6	c #838383",
"7	c #A5761C",
"8	c #7B6439",
"9	c #966500",
"0	c #533F1C",
"a	c #FFFFFF",
"b	c #553800",
"c	c #966400",
"d	c #402A00",
"e	c #131313",
"f	c #494949",
"g	c #EBEBEB",
"h	c #402900",
"i	c #422B00",
"j	c #2A2A2A",
"k	c #EAEAEA",
"l	c #1F1F1F",
"m	c #BABABA",
"n	c #E7E7E7",
"o	c #606060",
"p	c #E2E2E2",
"q	c #DCDCDC",
"r	c #C0C0C0",
"          .+@           ",
"         #$%&*          ",
"        =-;>,.          ",
"        ')!!,.          ",
"        !~!!,.   {.     ",
"        ]^/!,.  (_:.    ",
"        ..<<<! .[}|1.   ",
"         .!<<!234!!5#   ",
"          !6<!78!!!90   ",
"          !6a<<<bc<bd   ",
"         ef6gdd!h/id    ",
"        eaj6kl  !dd     ",
"       eamj6nl          ",
"      eamoj6pl          ",
"     eamo!e6ql          ",
"     emo! e6rl          ",
"    emo!  e6ml          ",
"    jo!   e6ml          ",
"    e!    e6ml          ",
"    e     e6!           ",
"          e6!           ",
"          e!            ",
"          e             ",
"                        "};
