/* XPM */
static const char *fileprint_xpm[]={
"24 24 177 2",
"Qt c None",
".v c #000000",
"aL c #008700",
"aM c #00ff00",
".X c #050403",
".a c #303030",
"aE c #323232",
".n c #333331",
".M c #333333",
"aP c #353535",
".L c #363636",
"#p c #373737",
"aD c #383838",
".d c #393836",
"au c #3c3c3c",
"aF c #3e3e3e",
"#U c #3f3f3f",
"aT c #404040",
"av c #414141",
".N c #424242",
"al c #444444",
"#Y c #454545",
"aO c #464646",
".Y c #494949",
".1 c #4a4543",
".e c #4f4928",
"#c c #4f4f4f",
".# c #565656",
"#F c #575756",
".b c #594f45",
"aQ c #5c5c5c",
"#V c #5f5f5f",
"aG c #616161",
".O c #625b57",
"#t c #646464",
"aN c #666666",
"aU c #6a6a6a",
"aw c #6d6d6d",
"#W c #707070",
"#e c #717171",
"am c #797979",
"#X c #7a7a7a",
"aR c #7b7b7b",
"a. c #7c7c7c",
"aH c #808080",
"ak c #818181",
"#9 c #828282",
"#8 c #848484",
"a# c #858585",
"#7 c #868686",
"#6 c #888888",
"#T c #8b8b8b",
"aa c #8e8e8e",
"#a c #907f0b",
"#S c #919191",
"#N c #929292",
"#M c #959595",
"aI c #969696",
"aS c #979797",
"#D c #989898",
"#E c #999999",
"#C c #9c9c9c",
"#r c #9d9d9d",
"#s c #a0a0a0",
"aJ c #a2a2a2",
"#q c #a3a3a3",
"#d c #a4a4a4",
"aK c #a6a6a6",
".0 c #a7a7a7",
"ay c #aaaaaa",
"#B c #acacac",
"ab c #aeaeae",
"ax c #afafaf",
"aB c #b3b3b3",
"ao c #b4b4b4",
"az c #b5b5b5",
"aA c #b6b6b6",
"#f c #b7996e",
"#G c #b79a6f",
"an c #b7b7b7",
"#o c #b9b24a",
".Z c #bababa",
"aC c #bcbcbc",
"ap c #bebebe",
"ad c #c1c1c1",
"ac c #c3c3c3",
"at c #c6c6c6",
"ae c #c7c7c7",
"ag c #c9c9c9",
"#Z c #cacaca",
"aq c #cbcbcb",
"af c #cccccc",
"ah c #cdcdcd",
"#0 c #cfcfcf",
"ar c #d0d0d0",
"ai c #d3d3d3",
"#2 c #d4d4d4",
"aj c #d5d5d5",
"#3 c #d6d6d6",
"#b c #d7d178",
"#1 c #d7d7d7",
"as c #d9d9d9",
"#5 c #dadada",
"#4 c #dbdbdb",
"#O c #e1e1e1",
"#P c #e3e3e3",
".2 c #e4c7a3",
"#I c #e4c8a5",
".B c #e4caa8",
"#h c #e4cba9",
"#Q c #e5e5e5",
"#w c #e6ceb3",
".K c #e6d8c2",
"#J c #e6e6e6",
"#H c #e7c08d",
"#x c #e7ceaf",
"#y c #e7cfb5",
"#m c #e7d3bb",
".A c #e7dbc9",
"#g c #e8c08d",
"#n c #e8d3b8",
"#v c #e8d5bb",
"#u c #e8d7bf",
"#l c #e8d8c1",
"#k c #e8d8c4",
"#. c #e8d9c6",
"## c #e9d7be",
"#j c #e9dac5",
".u c #ead7bc",
"#K c #eaeaea",
".3 c #ebdeca",
".J c #ebdfce",
".t c #ebe0ce",
".f c #ecdec9",
".c c #ecdfcb",
".W c #ecdfcd",
".o c #ede0cc",
".9 c #ede2d2",
".4 c #ede3d5",
".P c #eee0cf",
"#i c #eee3d3",
".8 c #eee5d7",
".z c #eee5d8",
".V c #efe3d3",
".6 c #f0e7dc",
".7 c #f0e8db",
".5 c #f1e7db",
".U c #f1e9dd",
".I c #f1e9de",
".Q c #f1e9df",
".s c #f2ebe2",
".C c #f3ece3",
".H c #f3ede4",
".m c #f3ede6",
".G c #f3eee7",
".R c #f3efe7",
".y c #f4eee6",
".T c #f4eee7",
".x c #f4efe9",
".S c #f4f0e9",
".r c #f5f1ec",
".D c #f5f3f0",
".q c #f6f2ee",
".w c #f6f2ef",
".g c #f6f3f0",
".j c #f6f4f1",
".i c #f6f5f3",
"#A c #f6f6f6",
".E c #f7f6f4",
".p c #f7f6f5",
".k c #f7f7f6",
".h c #f7f7f7",
".F c #f8f6f5",
".l c #f8f8f8",
"#R c #fdfdfd",
"#L c #fefefe",
"#z c #ffffff",
"QtQtQtQtQtQtQtQtQtQt.#.a.bQtQtQtQtQtQtQtQtQtQtQt",
"QtQtQtQtQtQtQtQtQtQt.a.c.c.b.d.bQtQtQtQtQtQtQtQt",
"QtQtQtQtQtQtQtQtQt.e.f.g.h.h.i.c.b.a.bQtQtQtQtQt",
"QtQtQtQtQtQtQtQtQt.#.j.k.l.l.h.i.j.m.c.n.bQtQtQt",
"QtQtQtQtQtQtQtQt.e.o.l.l.l.l.p.q.r.s.t.u.vQtQtQt",
"QtQtQtQtQtQtQtQt.#.l.l.l.l.l.w.x.y.z.A.B.vQtQtQt",
"QtQtQtQtQtQtQt.e.C.D.E.F.E.j.G.H.I.J.K.bQtQtQtQt",
"QtQtQtQt.L.M.N.O.P.Q.R.x.S.T.C.U.V.W.B.X.e.eQtQt",
"QtQtQt.Y.Z.0.1.2.3.4.5.6.U.7.8.9#.##.b#a#b.eQtQt",
"QtQt#c.Z#d#e.N#f#g#h#i.W#j#k#l#m#n#h.v#o.eQtQtQt",
"Qt#p.Z#q#r#s#t.v.##f#g.B#u#v#w#x#y.b#a#b.eQtQtQt",
".v#z#A#B#C#D#E#E#s#t.v#F#G#H#I.2#h.v#o.vQtQtQtQt",
".N#J#K#z#L#A#B#M#N#N#E#s#t.v.##f.N.v#b.v.vQtQtQt",
".#Qt#O#P#O#Q#z#R#A#B#S#S#T#E#s.#.v#U#V#W#X.vQtQt",
"#Y#Z#0#1#2#3#4#5#O#z#z#A#B#6#7#8#9a.a##S#U.vQtQt",
".vaaabacadaeafagahaiajQt#z#z#A#Baka.#T#Ual.vQtQt",
"Qt.v.vam#N.0anaoapadapacaqaras#z#Aatau#Yav.vQtQt",
"QtQtQt.N.v.vawa##saxayazaAaBaCacad#N#YaDaEaFQtQt",
"QtQtQtQtQtQt.N.v.vaGaHaIaJaKaLaM#BaNaOaP.vQtQtQt",
"QtQtQtQtQtQtQtQtQtav.v.vaQaR#NaS#SaN.N.vQtQtQtQt",
"QtQtQtQtQtQtQtQtQtQtQtQtaT.v.vaQaU#W.vQtQtQtQtQt",
"QtQtQtQtQtQtQtQtQtQtQtQtQtQtQt.N.v.vQtQtQtQtQtQt",
"QtQtQtQtQtQtQtQtQtQtQtQtQtQtQtQtQtQtQtQtQtQtQtQt",
"QtQtQtQtQtQtQtQtQtQtQtQtQtQtQtQtQtQtQtQtQtQtQtQt"};
