/* XPM */
static const char * lo16_app_tuxcards_xpm[] = {
"16 18 9 1",
" 	c None",
".	c #808080",
"+	c #000000",
"@	c #C0C0C0",
"#	c #101010",
"$	c #E0A008",
"%	c #FFFFFF",
"&	c #FF0000",
"*	c #0000FF",
"      .++.      ",
"     .++++.     ",
"     +@+@++     ",
"     +#++.+     ",
"     +$$$@+     ",
"     +$$$@+.    ",
"     +$$%%++    ",
"    +.%%%%%+.   ",
"   &&&&%****+.  ",
"   &%&&*%*%*++  ",
"   +&%&&*%*%++. ",
"  ++&&%&%**%+++ ",
"  $+%&&%&%*%+++ ",
" $$$+++&%*%$++$ ",
"$$$$$++%%%@$$$$$",
"$$$$$%%%%%+$$$$$",
" $$$$$%%+++$$$$ ",
"  $$$.+++++.$$  "};
