/* XPM */
static const char * lo32_app_tuxcards_xpm[] = {
"32 32 17 1",
" 	c None",
".	c #D8D8D8",
"+	c #B3B3B3",
"@	c #8D8D8D",
"#	c #404040",
"$	c #000000",
"%	c #FCFCFC",
"&	c #686868",
"*	c #9C6B0B",
"=	c #D39114",
"-	c #EAB20B",
";	c #F3CC15",
">	c #DA9D0C",
",	c #6F4D0F",
"'	c #1A1ABF",
")	c #C20000",
"!	c #CDAB63",
"             .+@@+.             ",
"            +#$$$$#+            ",
"           .#$$$#.$#+           ",
"           +$$$$$$$$#           ",
"           #$$$$$$$$$           ",
"           $#%&$&%#$$           ",
"           $%$%$%$%$$           ",
"           $@*#*@*%$$           ",
"          .$*==-;;*$$.          ",
"          +$=--;;>-$$+          ",
"          &$=====-,$$&.         ",
"         +$$@==--@@$$$&.        ",
"        .&$#+@@@@++#$$$&        ",
"        &$$@%..%%%.+#$$$.       ",
"       .$$#.'''''''.+$$$&       ",
"       &$#)))'%'%''))%+$$.      ",
"      .&))%).)'%'%'%))))#&      ",
"      &))%)%))%'%'')%)%))$      ",
"      $#))%)%))%'%'%)%)%)$      ",
"      $$).)%)%)'%'')%)%))$      ",
"      $$#)%)%))%'')%)%))&$      ",
"      $$$))%)%)'%'%)%)%)#$      ",
"     ;;=,).)%))'#')%)%))#$      ",
"    .;--;$)%)%#$$)%)%))#$,;     ",
"   ;;---;,)).)$$$#)))%)#,>-     ",
"   ;-----;,))#$$$@%.)));;--;    ",
"   -------;,$$$$@%%+,-------;   ",
"  .-------->.++.%%+$,=------!   ",
"  !--------=&.%%.&$$,=------    ",
"  .!-------=,$$$$$$$,=----!     ",
"    .!!=-==*,      $,,===!      ",
"      ..!**,        @,,!        "};
