/* XPM */
static const char*removeKnoten_xpm[]={
"16 16 8 1",
"f c #808080",
"e c #ffa858",
"c c #a0a0a0",
". c #000000",
"# c None",
"d c #ffdca8",
"a c #ffffff",
"b c #ff0000",
".....###########",
".aaa.###########",
".aaa.###########",
".aaa.###########",
".....###########",
"#.######b#######",
"#c#bb##bb#######",
"#.##bbbb###.....",
"#.###bb####.dee.",
"#cc.bbb.ff..dee.",
"#.##b##b###.eee.",
"#.#bb##bb##.....",
"#c#b####b#######",
"#.#b############",
"#.##############",
"#c...###########"};
