/* XPM */
static const char*renameKnoten_xpm[]={
"16 16 3 1",
"# c #008000",
"a c #000000",
". c None",
".#..#.###.#...#.",
".##.#.#...#...#.",
".##.#.##..#.#.#.",
".#.##.#...#.#.#.",
".#.##.#...##.##.",
".#..#.###.#...#.",
"................",
".aaaaaaaaaaaaaa.",
"a..............a",
"a.aa.a.a.a.a.a.a",
"a.a..aaa.a.a.a.a",
"a.aa.a.a..a..a.a",
"a..............a",
".aaaaaaaaaaaaaa.",
".......aa.......",
".......aa......."};
