/* XPM */
static const char * text_bold_xpm[] = {
"22 22 2 1",
" 	c None",
".	c #000000",
"                      ",
"                      ",
"                      ",
"                      ",
"     .........        ",
"      ...   ...       ",
"      ...    ...      ",
"      ...    ...      ",
"      ...    ...      ",
"      ...   ...       ",
"      ........        ",
"      ...   ....      ",
"      ...    ....     ",
"      ...     ...     ",
"      ...     ...     ",
"      ...     ...     ",
"      ...    ...      ",
"     ..........       ",
"                      ",
"                      ",
"                      ",
"                      "};
