/* XPM */
static char*treeClear_xpm[]={
"16 16 5 1",
"c c #a0a0a0",
"# c #000000",
". c None",
"b c #dcdcdc",
"a c #ffffff",
"..#########.....",
"..#aaaaaabb#....",
"..#aaaaaacab#...",
"..#aaaaaacaab#..",
"..#aaaaaac####..",
"..#aaaaaaaccc#..",
"..#aaaaaaaaaa#..",
"..#aaaaaaaaaa#..",
"..#aaaaaaaaaa#..",
"..#aaaaaaaaaa#..",
"..#aaaaaaaaaa#..",
"..#aaaaaaaaaa#..",
"..#aaaaaaaaaa#..",
"..#aaaaaaaaaa#..",
"..############..",
"................"};
