/* XPM */
static const char *showText_xpm[]={
"22 22 15 1",
". c None",
"# c #000000",
"d c #1723ff",
"a c #191919",
"b c #414141",
"e c #424ee9",
"f c #767fd5",
"c c #898989",
"g c #b9bcd4",
"j c #c2c2c2",
"k c #d1d1d1",
"l c #d5d5d5",
"m c #e9e9e9",
"i c #efefef",
"h c #ffffff",
"......................",
"......................",
"......................",
"...###############abc.",
"...#ddddddddddddddefg.",
"...###############abc.",
"...#hhhhhhhhhhhhhhhhh.",
"...#hh#####ih##h##hhh.",
"...#hh##hhhhhhhh##hhh.",
"...#hh##hhhhh##h##hjc.",
"...#hh####ihh##h##hbc.",
"...#hh##hhhhh##h##hbc.",
"...#hh##hhhhh##h##hbc.",
"...#hh##hhhhh##h##hbc.",
"...#hh##hhhhh##h##hbc.",
"...#hhhhhhhhhhhhhhhhh.",
"...#hhhhhhhhhhhhhhhhh.",
"...###############abc.",
"...#kkkkkkkkkkkkkkl.m.",
"......................",
"......................",
"......................"};
