/* XPM */
static const char *xml_xpm[]={
"34 34 670 2",
"Qt c None",
".G c #000000",
"gL c #0074b3",
"e# c #0077b3",
"eA c #007cb8",
"#z c #007f45",
"#h c #008d4b",
"bV c #00915b",
"fg c #009751",
"eR c #00994b",
"ep c #009b3e",
"cK c #00a031",
"#g c #00b475",
"gK c #0167a2",
"fo c #0183c2",
"e1 c #0184c0",
"bS c #018c47",
"bs c #018f5f",
"d3 c #019042",
"aE c #019060",
"ae c #01915f",
"cl c #028953",
"fi c #028f54",
"#R c #03915f",
"#N c #039e49",
"bo c #03a74b",
"bR c #048f41",
"fG c #049059",
"fH c #04935f",
"d2 c #04a450",
"fN c #0583c0",
"eU c #059358",
"bT c #059458",
"es c #059a55",
"#w c #059c53",
"aa c #05a44a",
"dB c #05a84b",
"cm c #068c4d",
"#y c #069866",
"eq c #06a052",
"d1 c #06a548",
"fh c #079560",
"bU c #079562",
"#O c #079958",
"aD c #079e57",
"ab c #079e58",
"er c #079f57",
"bp c #079f5a",
"aC c #07a447",
"a1 c #07a448",
"br c #089363",
"ad c #089463",
"#Q c #089465",
"#P c #08975f",
"#x c #089763",
"ac c #08995e",
"bq c #089961",
"eS c #089b5c",
"eT c #089b5f",
"e. c #098dce",
"fM c #0b90d1",
"cJ c #0ba420",
"gM c #0c76ac",
"gR c #0d3e61",
"cL c #0d6d45",
"fF c #0d855e",
"#v c #0dca76",
"dJ c #0e7fae",
"dg c #0e9ce4",
"d4 c #0f7554",
"dA c #0fa740",
"cU c #102532",
"#i c #10623d",
"cP c #106a2c",
"f9 c #1092d7",
"fI c #117a67",
"gr c #1191d3",
"fj c #127c71",
"f4 c #128246",
"cO c #128679",
"d0 c #12a744",
"h. c #133755",
"h# c #133853",
"gy c #133d5e",
"et c #137b5d",
"ez c #1396d2",
"gq c #148fcf",
"fn c #1498d6",
"#u c #14d250",
"gS c #152c3f",
"ha c #15364e",
"cQ c #1596dc",
"fT c #16232b",
"ge c #162a39",
"e0 c #1699d6",
"e2 c #177eb5",
"fp c #1781b7",
"ck c #178471",
"g9 c #18415f",
"dh c #187ba4",
"#Y c #191919",
"f2 c #19a6f5",
"dZ c #19a738",
"eE c #1a3a4a",
"gN c #1a77ad",
"f5 c #1a7a35",
"d9 c #1ba5e6",
"dN c #1d282b",
"dk c #1d2d34",
"e6 c #1d313a",
"#M c #1da333",
"ed c #1e313d",
"gs c #1e8ec5",
"fm c #1fa8e9",
"fD c #1fb4ff",
"gz c #202f38",
"bZ c #205064",
"eV c #208e88",
"ey c #20a9e7",
"dC c #20d390",
"eZ c #21a9e9",
"f6 c #227774",
"dK c #2281b6",
"d# c #228766",
"g. c #228fc2",
"hb c #233c4a",
"fL c #2397c5",
"f3 c #23aade",
"dH c #23b2f6",
"g8 c #244962",
"fl c #24b2e0",
"gQ c #256189",
".2 c #25706b",
"go c #26849b",
"f7 c #27acf4",
"d8 c #27b5f3",
"f8 c #287d8d",
"a2 c #288952",
"de c #28b6df",
"gp c #297884",
"aF c #298b52",
"eY c #29b8fa",
"g7 c #2a363c",
"gO c #2a7eaa",
"ex c #2ab8f9",
"#Z c #2b2b2b",
".4 c #2b84af",
"bn c #2bac3d",
".3 c #2c89b3",
"dD c #2ca6a6",
"#f c #2cd5f1",
"cr c #2d2e24",
"ft c #2d576b",
"bQ c #2d9564",
"dY c #2dac57",
"bw c #2e332a",
"#A c #2e583a",
"fO c #2e8fbd",
"dG c #2ebfff",
"gP c #2f759e",
"af c #2f8d55",
"dz c #2faa3f",
"iB c #302e2a",
"cn c #306554",
"dI c #307577",
"bt c #308a53",
"gt c #308fc0",
"cg c #30a329",
"fk c #30caff",
"bd c #312f2b",
"a# c #31a93f",
"b0 c #32434f",
"fS c #326481",
"cq c #32718e",
"cj c #329db7",
"eX c #32c3ff",
"d7 c #32c4ff",
"a5 c #33403a",
"df c #33611d",
"fE c #33c8ff",
"ah c #344541",
"gd c #346483",
"ew c #34c8ff",
"aH c #354538",
"#T c #354c32",
".1 c #358927",
"eB c #3589b5",
"fK c #359457",
"fJ c #35b1e5",
"a0 c #36aa3e",
"#e c #36dafd",
"cR c #37757b",
"aB c #37aa3e",
"dd c #37cbff",
"#S c #388c53",
"dF c #38d0ff",
"c9 c #39a830",
"eO c #39dcff",
"eo c #3abdb8",
"fe c #3ad4ff",
".5 c #3b81b4",
"da c #3b9397",
"gT c #3c4347",
"#a c #3c841c",
"bW c #3c874f",
"ff c #3cd2ff",
"fu c #3d3525",
"cN c #3dd2ff",
"d6 c #3dd4ff",
"d5 c #3ecbf9",
"ev c #3ed7ff",
"d. c #3fae7e",
"eW c #3fdcff",
"bP c #419e31",
"dy c #41ad3e",
"ci c #41b9ba",
"dc c #41d9ff",
"dw c #429c27",
"eF c #434340",
"gu c #4391bb",
"dV c #43cdf7",
"cM c #43dbff",
"eu c #44d5ff",
"eP c #44daff",
"dE c #44dcff",
"c3 c #46870e",
"#0 c #474747",
"g# c #4798c0",
"aQ c #494743",
"hc c #4a4d4f",
"gx c #4a7d9e",
"dx c #4aaf3b",
"hr c #4b4741",
"#X c #4b4b4b",
"cT c #4b6e7a",
"#j c #4b7b64",
"eQ c #4bd7ff",
"hL c #4d4943",
"#m c #4d4d4d",
"dj c #4d839e",
"iA c #4e4b46",
"ch c #4ed3cd",
"h4 c #4f4b45",
"ij c #4f4b46",
"em c #4fe0ff",
"ea c #5096be",
"bm c #50ad37",
"#L c #50b535",
"#d c #50deff",
"c8 c #51b03c",
"ec c #525c5e",
"gv c #5292b6",
"aI c #536876",
"#b c #54b9bc",
"e5 c #55829e",
"cH c #55a747",
"aA c #56b137",
"a. c #56b43a",
"## c #575757",
"co c #577153",
"di c #5892a9",
"az c #589447",
"c4 c #5aa622",
"fU c #5b544b",
"ar c #5c5957",
"ag c #5c7a4a",
"e7 c #5d584c",
"gf c #5d5851",
"gw c #5d91b2",
"ce c #5d9761",
"c7 c #5db33a",
"aZ c #5dc13b",
"en c #5ddeff",
"bx c #5e676c",
"db c #5edeff",
"#c c #5ee7ff",
".m c #5f5b53",
"ga c #5f9dbe",
"#o c #5fbec3",
"gA c #605c55",
"#K c #60b226",
".w c #616161",
"bu c #618155",
"bO c #61b62d",
"cf c #62ab7d",
"#t c #62e5c2",
".l c #635e55",
"a3 c #638456",
"c6 c #63b539",
"c5 c #64b833",
"cG c #64ba35",
"as c #656565",
"fq c #65a1c1",
"fP c #65a1c2",
"c2 c #65c6be",
"dW c #65e3ff",
"dt c #65e4ff",
".Z c #666666",
"bX c #668152",
"ay c #669741",
".k c #676157",
"dM c #677879",
"aG c #688a59",
"#2 c #6a6a6a",
"e3 c #6aa0c0",
"dv c #6abcb9",
"bl c #6abe2b",
".j c #6b6459",
"gU c #6b665d",
"hd c #6b675f",
"a4 c #6b7a57",
"bY c #6c6e4f",
"#J c #6dad76",
".i c #6e675b",
"fv c #6e685f",
"eD c #6e97b4",
"#9 c #6ebd30",
"aw c #6f8d19",
"eC c #6f9fbc",
"#3 c #6fd6ff",
"#s c #6fdf50",
"aP c #706c69",
"cp c #707763",
"cF c #70ba35",
"gb c #719fbc",
"cd c #71b82a",
".h c #726a5d",
"aq c #726f6d",
"du c #72d7f6",
"#F c #72d8fe",
"#1 c #737373",
"dX c #74e5ff",
".T c #757575",
"cB c #75b925",
".g c #766d60",
"gc c #769cb7",
"gg c #777066",
".6 c #77a0b3",
"bv c #787b55",
"cE c #78bc33",
"#p c #78d7f5",
"hJ c #796a56",
"fQ c #79a5be",
"ho c #7a6d59",
".f c #7a7062",
"cA c #7ad960",
"gm c #7b7160",
"he c #7b746a",
".u c #7b7b7a",
"cD c #7bbd32",
"cC c #7bbf33",
"fZ c #7c7263",
"gB c #7c756a",
"e4 c #7ca1bb",
".e c #7d7364",
"cc c #7dbd2b",
"fV c #7e776d",
"eb c #7e959d",
"fs c #7ea1b9",
"fr c #7ea6bf",
".d c #817666",
"gV c #817a6e",
"#q c #81e0e6",
"hx c #827b72",
"bG c #82dce6",
"ap c #837f7a",
"cS c #847150",
"hw c #847d74",
"ee c #847e76",
"dO c #847e78",
"eG c #847f75",
"dl c #84807b",
".E c #848484",
".c c #857968",
"hv c #857f77",
"hy c #867f75",
".0 c #86a76f",
"ax c #86b519",
"eK c #877f71",
"ei c #878074",
".U c #878787",
"fR c #87a8bf",
"cV c #88847f",
"aX c #88c554",
".b c #897c6a",
"bc c #89827b",
"cb c #89c22b",
"hu c #8a837b",
"av c #8aa649",
"e8 c #8b8378",
"hs c #8b8a89",
"c# c #8bc32a",
"bN c #8bdb53",
".x c #8c7f6c",
"aO c #8c8b81",
"aW c #8cbd3d",
".a c #8d7f6c",
".o c #8e816d",
"hf c #8e867a",
"ca c #8ec52a",
"#I c #8ed694",
".t c #8f8f8e",
"c. c #8fce1a",
"cI c #8fe2fc",
".# c #90826f",
".v c #919191",
"aR c #91f1ff",
"bF c #928c81",
".F c #929292",
"dL c #92978c",
"bk c #93d2a3",
"hz c #948b7f",
"cs c #94918d",
"#r c #94f6aa",
"ht c #959089",
"b9 c #96f39c",
"fw c #978f83",
".7 c #98c2ad",
"#H c #98e2ce",
"gC c #998f81",
"gh c #999081",
"bK c #99c814",
"bI c #9ac613",
"iz c #9c7f55",
".H c #9c9283",
"ao c #9d9a90",
"a6 c #9d9d9d",
"gW c #9f9586",
"bJ c #9fcc1d",
"bM c #9fe547",
"#4 c #9ff8ff",
"b8 c #a1998d",
"aM c #a2a2a0",
"aV c #a2ccbe",
"cw c #a49f98",
"cZ c #a59f98",
"bh c #a5cb23",
"aY c #a5f67e",
"hA c #a69d8e",
".D c #a6a6a6",
"b1 c #a7a4a1",
"hg c #a89d8d",
"cz c #a99f8d",
"fW c #a99f8e",
".n c #aaaaaa",
"#U c #aaacaa",
".s c #abaaaa",
"bb c #aca79f",
"bL c #ade543",
"c1 c #aea18e",
"hM c #aeaeae",
"#8 c #aeee3c",
"b# c #b0afac",
"#G c #b0fac2",
"el c #b4a48b",
"ds c #b4a791",
".V c #b4aba0",
"#B c #b4b6b4",
"at c #b4f8dc",
"dU c #b5a58e",
"gD c #b5a896",
"hR c #b5ad9f",
"ef c #b5ada1",
"hQ c #b5aea1",
"dP c #b5afa4",
"an c #b5b3ac",
"hS c #b7ad9e",
"eH c #b7aea1",
"dm c #b7b3aa",
"fd c #b8a387",
"eN c #b8a58b",
"gX c #b8ab98",
"hB c #b8ab99",
"hP c #b8b1a6",
"bj c #b9eef2",
"e9 c #bab0a0",
".r c #bababa",
"ir c #bbac96",
"gi c #bbad9a",
"iq c #bbae98",
"bE c #bbb6ad",
"ii c #bc9c6d",
"h3 c #bc9f71",
"gn c #bca481",
"hI c #bca88a",
"ip c #bcaf9b",
"io c #bcb0a1",
"hO c #bcb7ad",
"cW c #bcb7b1",
"ai c #bcbdbd",
"f1 c #bda784",
"hn c #bdaa8c",
"g3 c #bdaa8e",
"is c #bdab93",
"it c #bdad91",
"hh c #bdb09c",
"in c #bdb2a3",
"hK c #be9e75",
"hq c #bea279",
"gJ c #bea481",
"fC c #bea989",
"g2 c #beab90",
"h5 c #bebebe",
"g6 c #bfa37c",
"iu c #bfaa8f",
"gl c #bfb099",
"fx c #bfb4a2",
"hT c #bfb4a4",
"im c #bfb8ad",
"by c #bfbdbb",
"am c #bfbfba",
"iy c #c0a583",
"ix c #c0a985",
"fA c #c0b29d",
"bg c #c0d800",
"iw c #c1aa8a",
"iv c #c1aa8d",
".q c #c1c1c1",
"fz c #c2b49e",
"il c #c2bbb1",
"ik c #c2beb3",
"#7 c #c2f738",
"aL c #c3c2c0",
".S c #c3c2c2",
"hC c #c4b6a3",
"bH c #c4ee30",
"#E c #c5c5c5",
"dR c #c6bdb0",
"aN c #c6c3be",
"hU c #c7b9a7",
"gY c #c8b9a2",
"gE c #c8baa3",
"fX c #c8bba8",
"ct c #c8c2bd",
"hN c #c8c3bc",
"eJ c #c9bdaa",
".p c #c9c9c9",
"hi c #cabba3",
"eh c #cabeae",
"cy c #cac3b5",
".8 c #cad6d5",
"aU c #cafff0",
"b7 c #cbc6bc",
"b5 c #ccc7bf",
"aJ c #cdcdcd",
"hD c #cfbfa7",
"hV c #cfbfa9",
"b6 c #cfc9c1",
"b. c #cfcdcb",
"be c #cfffbe",
"gj c #d0c2aa",
"c0 c #d1c8ba",
"cv c #d1ccc3",
"al c #d1d0ce",
".C c #d1d1d1",
"b2 c #d2cdc9",
".I c #d2d3d3",
"bi c #d2ffff",
"gZ c #d3c3aa",
"hj c #d3c4ab",
"ia c #d3cbbd",
"cY c #d3ccc2",
"hW c #d4c4ac",
"i# c #d4cab8",
"h9 c #d4cdc2",
"b4 c #d4cfc8",
"aS c #d4ffb4",
"hE c #d5c5aa",
"gF c #d5c6ac",
"f. c #d5c9b4",
"eI c #d5cab8",
"eg c #d5cbbb",
"h8 c #d5d2c7",
"a7 c #d5d6d6",
"fy c #d6c9b3",
"ba c #d6d2c9",
"bD c #d6d4cf",
"aT c #d6e92f",
"i. c #d7c9b7",
"dQ c #d7cec1",
"fY c #d8c8b1",
"#k c #d8d9da",
"hX c #d9c8ad",
"ib c #d9cab8",
"dn c #d9d2c4",
"cX c #d9d2c8",
"ic c #dacbb5",
"#6 c #dafe21",
"hk c #dbc8ad",
"gk c #dbcbb1",
"dr c #dbd1c0",
".W c #dbdbdb",
"hF c #dcc9ad",
"g0 c #dccbad",
"dT c #dcd1bc",
"bf c #dcef06",
"h7 c #ddd5ca",
"bz c #dddbd8",
"hY c #decbb0",
"gG c #deccb1",
"id c #deceb4",
"ek c #ded0bb",
"au c #ded500",
"cu c #ded9d0",
"a8 c #dedede",
"bA c #dfdcd9",
"bC c #dfddd8",
"aK c #dfdfdf",
"hl c #e0cdaf",
"b3 c #e0dcd6",
"h6 c #e0ddd5",
"#n c #e0e0e0",
"hG c #e1cdae",
"g1 c #e1ceb0",
"hp c #e2c69e",
"ih c #e2caa2",
"g5 c #e2caa6",
"hZ c #e2ceae",
"ie c #e2cfb4",
"h2 c #e3c8a2",
"a9 c #e3e3e2",
"ak c #e3e3e3",
"h1 c #e4cca7",
"h0 c #e4cda9",
"hm c #e4cdad",
"if c #e4d0b0",
"g4 c #e5cda8",
"ig c #e5cdad",
"hH c #e5ceaa",
"fB c #e5d4b6",
"gI c #e6ceaa",
"f0 c #e6d2b2",
"fc c #e6d6bb",
"dS c #e6dac8",
"eM c #e7d7be",
"bB c #e7e3dc",
"#V c #e7e7e7",
"aj c #e7e7e8",
"gH c #e8d4b5",
".R c #e9e9e9",
".B c #eaeae9",
".Y c #ececec",
"#C c #ececed",
"do c #ede4d6",
"f# c #eedec7",
"#5 c #efff59",
"cx c #f2efea",
"#l c #f3f3f4",
"#W c #f4f4f4",
"dq c #f5f1eb",
".Q c #f5f5f5",
"#D c #f6f6f6",
"dp c #f7f3ee",
".9 c #f7f7f7",
".A c #f8f8f8",
".X c #fafafa",
".L c #fafbfb",
".K c #fafbfc",
".M c #fbfbfb",
".J c #fbfbfc",
"fb c #fcfaf8",
"eL c #fcfbf8",
"ej c #fcfbf9",
"#. c #fcfcfc",
".N c #fcfdfd",
"fa c #fdfbf8",
".P c #fdfdfd",
".O c #fdfefe",
".z c #fefefe",
".y c #ffffff",
"QtQtQtQtQtQtQtQt.#.a.b.c.d.e.f.g.h.i.j.k.l.mQt.nQtQtQtQtQtQtQtQtQtQt",
"QtQtQtQtQtQtQtQt.o.p.p.p.p.p.p.p.p.p.q.r.s.t.u.v.wQtQtQtQtQtQtQtQtQt",
"QtQtQtQtQtQtQtQt.x.p.y.y.y.y.y.y.y.y.z.A.B.C.D.E.F.GQtQtQtQtQtQtQtQt",
"QtQtQtQtQtQtQtQt.H.I.J.K.L.L.M.N.O.z.z.P.Q.R.S.T.p.U.GQtQtQtQtQtQtQt",
"QtQtQtQtQtQtQtQt.V.W.M.M.X.X.X.X.M.M.M.z.z.X.Y.Z.y.p.U.GQtQtQtQtQtQt",
"QtQtQtQtQtQtQtQt.0.1.2.3.4.5.6.7.8.9.9.X#..z.M##.y.y.p.U.GQtQtQtQtQt",
"QtQtQtQtQtQtQtQt#a#b#c#d#e#f#g#h#i#j#k#l.9.M.P#m#n.y.y.p.U.GQtQtQtQt",
"QtQtQtQtQtQt#o#p#q#r#s#t#u#v#w#x#y#z#A#B#C#D.X#m#E#n.y.y.p.F.wQtQtQt",
"QtQtQtQtQt#F#G#H#I#J#K#L#M#N#O#P#Q#R#S#T#U#V#W#X#Y#Y#Z#0.w#1#2QtQtQt",
"QtQtQtQt#3#4#5#6#7#8#9a.a#aaabacadaeafagahaiajakalamanaoapaqarasQtQt",
"QtQtQtQtatauavawaxayazaAaBaCaDacadaEaFaGaHaIaJ.YaK.WaLaMaNaOaPaQQtQt",
"QtQtQtaRaSaTaUaVaWaXaYaZa0a1aDacadaEa2a3a4a5a6a7a8a9b.b#babbbcbdQtQt",
"QtQtQtbebfbgbhbibjbkblbmbnbobpbqbrbsbtbubvbwbxbybzbAbBbCbDbEbFbdQtQt",
"QtQtbGbHbIbJbKbLbMbNbObPbQbRbSbTbUbVbWbXbYbZb0b1b2b3b4b5b6b7b8bdQtQt",
"QtQtb9c.c#cacbcccdcecfcgchcicjckclcmcncocpcqcrcsctcucvcwcxcyczbdQtQt",
"QtQtcAcBcCcDcEcFcGcHcIcJcKcLcMcNcOcPcQcRcScTcUcVcWcXcYcZcxc0c1bdQtQt",
"QtQtc2c3c4c5c6c7c8c9d.d#dadbdcdddedfdgdhdidjdkdldmdndodpdqdrdsbdQtQt",
"QtQtdtdudvdwdxdydzdAdBdCdDdEdFdGdHdIdJdKdLdMdNdOdPdQdRdRdSdTdUbdQtQt",
"QtQtdVdWdXdYdZd0d1d2d3d4d5d6d7d8d9e.e#eaebecedeeefegeheiejekelbdQtQt",
"QtQtQtemeneoepeqereseteuevewexeyezeAeBeCeDeEeFeGeHeIeJeKeLeMeNbdQtQt",
"QtQtQteOePeQeReSeTeUeVeWeXeYeZe0e1e2e3e4e5e6e7e8e9f.f#fafbfcfdbdQtQt",
"QtQtQtQtfefffgfhbUfifjfkflfmfnfofpfqfrfsftfufvfwfxfyfzfAfBfBfCbdQtQt",
"QtQtQtQtfDfEfFfGfHfIfJfKfLfMfNfOfPfQfRfSfTfUfVfWfXfYfAfZ.yf0f1bdQtQt",
"QtQtQtQtQtf2f3f4f5f6f7f8f9g.g#gagbgcgdgegfggghgigjgkglgm.yf0gnbdQtQt",
"QtQtQtQtQtQtQtgogpgqgrgsgtgugvgwgxgygzgAgBgCgDgEgFgGgH.y.ygIgJbdQtQt",
"QtQtQtQtQtQtQtQtgKgLgMgNgOgPgQgRgSgTgUgVgWgXgYgZg0g1g2g3g4g5g6bdQtQt",
"QtQtQtQtQtQtQtQtg7g8g9h.h#hahbhchdhehfhghhhihjhkhlhmhnho.yhphqbdQtQt",
"QtQtQtQtQtQtQtQthrhshthuhvhwhxhyhzhAhBhChDhEhFhGhmhHhIhJ.yhphKbdQtQt",
"QtQtQtQtQtQtQtQthLhMhNhOhPhQhRhShThUhVhWhXhYhZhmh0h1h2.y.yhph3bdQtQt",
"QtQtQtQtQtQtQtQth4h5h6h7h8h9i.i#iaibicidiehGifiggIg5ihhphphpiibdQtQt",
"QtQtQtQtQtQtQtQtijikiliminioipiqirisitiuiviwixiygJg6hqhKh3iiizbdQtQt",
"QtQtQtQtQtQtQtQtiAiBiBiBiBiBiBiBiBiBiBiBiBbdbdbdbdbdbdbdbdbdbdbdQtQt",
"QtQtQtQtQtQtQtQtQtQtQtQtQtQtQtQtQtQtQtQtQtQtQtQtQtQtQtQtQtQtQtQtQtQt",
"QtQtQtQtQtQtQtQtQtQtQtQtQtQtQtQtQtQtQtQtQtQtQtQtQtQtQtQtQtQtQtQtQtQt"};
